HIERARCHY
ROOT hips
{
  OFFSET 0 11.86390953 0.3628582958
  CHANNELS 6 Xposition Yposition Zposition Yrotation Xrotation Zrotation
  JOINT spine
  {
    OFFSET 0 0.05383551117999996 0
    CHANNELS 3 Yrotation Xrotation Zrotation
    JOINT chest
    {
      OFFSET 0 0.6394558760401424 0
      CHANNELS 3 Yrotation Xrotation Zrotation
      JOINT neck
      {
        OFFSET 0 2.720089088562982 0
        CHANNELS 3 Yrotation Xrotation Zrotation
        JOINT head
        {
          OFFSET 0 0.37880844870545777 0
          CHANNELS 3 Yrotation Xrotation Zrotation
          JOINT rightEye
          {
            OFFSET -0.42867780714 0.7547055649100001 0.7381831347
            CHANNELS 3 Yrotation Xrotation Zrotation
            End Site
            {
              OFFSET -0.42867780714 0.7547055649100001 0.7381831347
            }
          }
          JOINT leftEye
          {
            OFFSET 0.428676479 0.7547055559999993 0.7381844503
            CHANNELS 3 Yrotation Xrotation Zrotation
            End Site
            {
              OFFSET 0.428676479 0.7547055559999993 0.7381844503
            }
          }
          JOINT jaw
          {
            OFFSET -0.18933892286100001 1.5626303011000007 1.137441874206
            CHANNELS 3 Yrotation Xrotation Zrotation
            End Site
            {
              OFFSET -0.18933892286100001 1.5626303011000007 1.137441874206
            }
          }
        }
      }
      JOINT rightShoulder
      {
        OFFSET -0.6795351508 2.0665205 0
        CHANNELS 3 Yrotation Xrotation Zrotation
        JOINT rightUpperArm
        {
          OFFSET -0.7287400483531672 0 0
          CHANNELS 3 Yrotation Xrotation Zrotation
          JOINT rightLowerArm
          {
            OFFSET -1.9872982039174532 0 0
            CHANNELS 3 Yrotation Xrotation Zrotation
            JOINT rightHand
            {
              OFFSET -2.6451847532219275 0 0
              CHANNELS 3 Yrotation Xrotation Zrotation
              JOINT rightLittleProximal
              {
                OFFSET -0.8008804099999995 -0.09592044000000044 -0.26183688629999996
                CHANNELS 3 Yrotation Xrotation Zrotation
                JOINT rightLittleIntermediate
                {
                  OFFSET -0.2473955153999997 -0.02541697026000067 0.002370178700999967
                  CHANNELS 3 Yrotation Xrotation Zrotation
                  JOINT rightLittleDistal
                  {
                    OFFSET -0.163687229200001 -0.015790700860001117 -0.0004274845300000635
                    CHANNELS 3 Yrotation Xrotation Zrotation
                    End Site
                    {
                      OFFSET -0.163687229200001 -0.015790700860001117 -0.0004274845300000635
                    }
                  }
                }
              }
              JOINT rightRingProximal
              {
                OFFSET -0.8393382799999985 -0.06223833561000025 -0.09213143500000005
                CHANNELS 3 Yrotation Xrotation Zrotation
                JOINT rightRingIntermediate
                {
                  OFFSET -0.3284497260000011 -0.03264224524000103 0.009408593183000052
                  CHANNELS 3 Yrotation Xrotation Zrotation
                  JOINT rightRingDistal
                  {
                    OFFSET -0.19447660429999902 -0.021730899850000318 0.003074347969000052
                    CHANNELS 3 Yrotation Xrotation Zrotation
                    End Site
                    {
                      OFFSET -0.19447660429999902 -0.021730899850000318 0.003074347969000052
                    }
                  }
                }
              }
              JOINT rightMiddleProximal
              {
                OFFSET -0.8473005199999989 -0.06735503500000095 0.10541820299999995
                CHANNELS 3 Yrotation Xrotation Zrotation
                JOINT rightMiddleIntermediate
                {
                  OFFSET -0.3450455799999995 -0.02481901642000084 0.019012570390000032
                  CHANNELS 3 Yrotation Xrotation Zrotation
                  JOINT rightMiddleDistal
                  {
                    OFFSET -0.23542332000000088 -0.025003910029999243 0.0075583457949999905
                    CHANNELS 3 Yrotation Xrotation Zrotation
                    End Site
                    {
                      OFFSET -0.23542332000000088 -0.025003910029999243 0.0075583457949999905
                    }
                  }
                }
              }
              JOINT rightIndexProximal
              {
                OFFSET -0.8008568281999987 -0.09897839600000169 0.29462796
                CHANNELS 3 Yrotation Xrotation Zrotation
                JOINT rightIndexIntermediate
                {
                  OFFSET -0.30524754480000016 -0.024634122809999992 0.02743375304999998
                  CHANNELS 3 Yrotation Xrotation Zrotation
                  JOINT rightIndexDistal
                  {
                    OFFSET -0.23067378950000017 -0.016876459159999913 0.008484125099999983
                    CHANNELS 3 Yrotation Xrotation Zrotation
                    End Site
                    {
                      OFFSET -0.23067378950000017 -0.016876459159999913 0.008484125099999983
                    }
                  }
                }
              }
              JOINT rightThumbProximal
              {
                OFFSET -0.25574064999999935 -0.12833189930000155 0.22385698609999993
                CHANNELS 3 Yrotation Xrotation Zrotation
                JOINT rightThumbIntermediate
                {
                  OFFSET -0.22791743260000086 -0.07103586192999978 0.27385039
                  CHANNELS 3 Yrotation Xrotation Zrotation
                  JOINT rightThumbDistal
                  {
                    OFFSET -0.13610267659999975 -0.03369390969999997 0.14246511509999996
                    CHANNELS 3 Yrotation Xrotation Zrotation
                    End Site
                    {
                      OFFSET -0.13610267659999975 -0.03369390969999997 0.14246511509999996
                    }
                  }
                }
              }
            }
          }
        }
      }
      JOINT leftShoulder
      {
        OFFSET 0.6795338396 2.0665205 0
        CHANNELS 3 Yrotation Xrotation Zrotation
        JOINT leftUpperArm
        {
          OFFSET 0.7287383950230443 0 0
          CHANNELS 3 Yrotation Xrotation Zrotation
          JOINT leftLowerArm
          {
            OFFSET 1.9872997282019604 0 0
            CHANNELS 3 Yrotation Xrotation Zrotation
            JOINT leftHand
            {
              OFFSET 2.6451820781302327 0 0
              CHANNELS 3 Yrotation Xrotation Zrotation
              JOINT leftLittleProximal
              {
                OFFSET 0.8008804099999995 -0.09592306899999814 -0.2618342639000001
                CHANNELS 3 Yrotation Xrotation Zrotation
                JOINT leftLittleIntermediate
                {
                  OFFSET 0.2473981400000007 -0.02542352681000093 0.0023609995859999455
                  CHANNELS 3 Yrotation Xrotation Zrotation
                  JOINT leftLittleDistal
                  {
                    OFFSET 0.1636846068000002 -0.015794634789999318 -0.00043272972159996703
                    CHANNELS 3 Yrotation Xrotation Zrotation
                    End Site
                    {
                      OFFSET 0.1636846068000002 -0.015794634789999318 -0.00043272972159996703
                    }
                  }
                }
              }
              JOINT leftRingProximal
              {
                OFFSET 0.8393409199999996 -0.062242267999998324 -0.0921281570000001
                CHANNELS 3 Yrotation Xrotation Zrotation
                JOINT leftRingIntermediate
                {
                  OFFSET 0.3284471036000003 -0.03264224524000103 0.009405970574000042
                  CHANNELS 3 Yrotation Xrotation Zrotation
                  JOINT leftRingDistal
                  {
                    OFFSET 0.1944779099999996 -0.021732211159998904 0.003073036670000001
                    CHANNELS 3 Yrotation Xrotation Zrotation
                    End Site
                    {
                      OFFSET 0.1944779099999996 -0.021732211159998904 0.003073036670000001
                    }
                  }
                }
              }
              JOINT leftMiddleProximal
              {
                OFFSET 0.8473005200000001 -0.06736028199999788 0.1054214809999999
                CHANNELS 3 Yrotation Xrotation Zrotation
                JOINT leftMiddleIntermediate
                {
                  OFFSET 0.3450455799999995 -0.024824261000000014 0.019013225990000007
                  CHANNELS 3 Yrotation Xrotation Zrotation
                  JOINT leftMiddleDistal
                  {
                    OFFSET 0.2354259489999998 -0.025005222000000327 0.0075590014499999705
                    CHANNELS 3 Yrotation Xrotation Zrotation
                    End Site
                    {
                      OFFSET 0.2354259489999998 -0.025005222000000327 0.0075590014499999705
                    }
                  }
                }
              }
              JOINT leftIndexProximal
              {
                OFFSET 0.8008594516999996 -0.09898495199999946 0.29463124239999994
                CHANNELS 3 Yrotation Xrotation Zrotation
                JOINT leftIndexIntermediate
                {
                  OFFSET 0.30524754480000016 -0.024632811499998963 0.02743047472
                  CHANNELS 3 Yrotation Xrotation Zrotation
                  JOINT leftIndexDistal
                  {
                    OFFSET 0.23067378950000017 -0.016876459159999913 0.008481502700000004
                    CHANNELS 3 Yrotation Xrotation Zrotation
                    End Site
                    {
                      OFFSET 0.23067378950000017 -0.016876459159999913 0.008481502700000004
                    }
                  }
                }
              }
              JOINT leftThumbProximal
              {
                OFFSET 0.25574326469999953 -0.12833321050000013 0.22385764169999997
                CHANNELS 3 Yrotation Xrotation Zrotation
                JOINT leftThumbIntermediate
                {
                  OFFSET 0.22804987480000094 -0.07138466829999968 0.273648441
                  CHANNELS 3 Yrotation Xrotation Zrotation
                  JOINT leftThumbDistal
                  {
                    OFFSET 0.13614857189999907 -0.033867001519998885 0.14238119169999996
                    CHANNELS 3 Yrotation Xrotation Zrotation
                    End Site
                    {
                      OFFSET 0.13614857189999907 -0.033867001519998885 0.14238119169999996
                    }
                  }
                }
              }
            }
          }
        }
      }
    }
  }
  JOINT rightUpperLeg
  {
    OFFSET -0.9749898906000001 -1.8495733739999998 0
    CHANNELS 3 Yrotation Xrotation Zrotation
    JOINT rightLowerLeg
    {
      OFFSET 0 -4.1566544686813165 0
      CHANNELS 3 Yrotation Xrotation Zrotation
      JOINT rightFoot
      {
        OFFSET 0.14539718599999998 -4.225553926 -0.3666210900000001
        CHANNELS 3 Yrotation Xrotation Zrotation
        JOINT rightToes
        {
          OFFSET 0.1706738473 -0.9584117400000015 1.0093348617
          CHANNELS 3 Yrotation Xrotation Zrotation
          End Site
          {
            OFFSET 0.1706738473 -0.9584117400000015 1.0093348617
          }
        }
      }
    }
  }
  JOINT leftUpperLeg
  {
    OFFSET 0.9749898906000001 -1.8495733739999998 0
    CHANNELS 3 Yrotation Xrotation Zrotation
    JOINT leftLowerLeg
    {
      OFFSET 0 -4.156653488267941 0
      CHANNELS 3 Yrotation Xrotation Zrotation
      JOINT leftFoot
      {
        OFFSET -0.14537357999999995 -4.225555399999999 -0.36661124279999996
        CHANNELS 3 Yrotation Xrotation Zrotation
        JOINT leftToes
        {
          OFFSET -0.17066467000000002 -0.9584157000000019 1.0093348617
          CHANNELS 3 Yrotation Xrotation Zrotation
          End Site
          {
            OFFSET -0.17066467000000002 -0.9584157000000019 1.0093348617
          }
        }
      }
    }
  }
}
MOTION
Frames: 4
Frame Time: 0.03333333333333333
-0.30670058727264404 -0.4220312112133797 0.020213434472680092 4.931450283590669 -3.9770100721688033 -9.350766087332197 4.108842625192422 2.2517155846546832 4.281339862865999 0.15759068180950458 1.8700305358251563 -7.0789585578740155 -3.404214393152967 6.347126925239571 5.574661063757655 -28.53432298320071 8.847677491048586 28.136589277627323 0 0 0 0 0 0 0 0 0 19.640624200927288 0.26292817446005934 7.980595301452661 -0.25877468091195055 -8.41881792236132 59.58681325396369 149.65350076659968 1.3788041983282608 -0.37387708431699895 0.6493215933681088 -21.514933283107926 30.950300537806147 -17.56660156795137 7.94247467489728 74.56147915245108 -5.317840968920165 6.055533022427941 109.27366602470356 -0.03323034570040008 -0.8197598445488495 22.123064502485764 -11.35348476138864 4.974385108747511 57.47928404835492 -4.773419191078446 5.450631478008575 89.0251170692391 0.24967181960472704 -0.1871753705508193 17.812876359639088 -10.092131426840423 2.7855649169450065 46.731058450109956 -5.4410207335023735 3.008188637270564 67.90418491121869 -1.5230898113431308 0.18753295687800758 15.913363046500322 -4.9832016516613 0.40853796681385085 12.41452083299489 -5.791867523408687 4.524688440978504 83.93652067407457 -0.0494417813608725 -0.2147138890764805 13.845813098137798 -12.051344580384521 -10.060080536144566 -7.5951884628231126 -9.285189777539546 5.509884414655215 -6.647370377413664 -11.265101419940969 -6.806233487135997 11.021722474533814 -14.094457695616633 4.225915710226632 9.042103141357229 -47.02240383278281 48.652042740821216 -93.90024984655446 -93.5946206949621 0.7864281281937813 0.7387951408486899 -9.650563879854085 29.146361819163886 39.63697251291127 15.76322256902164 0.22091661278091393 -15.99431535457 4.110559687409163 2.0230201168703448 -56.65960780928226 2.570080677470787 0.5091285206277208 -20.495849018977747 5.7184028590002285 0.2926629791069506 0.3730441163521467 3.4762537667458733 1.6061078703078742 -41.28002216059807 1.5855238702844794 0.5013018867864234 -19.296033849967454 -4.541948591123822 0.30465127124517966 -0.710448821288212 3.567256412958092 0.7838448468495803 -33.13185032151814 1.3341694496007097 0.15414118705982596 -12.281484856388184 -11.854439762013824 2.2401882557231403 5.861080275867808 2.4183412987490267 0.2865147164640078 -18.693461647924217 0.6836270357413949 0.023658160123871674 -10.237220312114788 -40.67574725641885 24.380946578112855 1.2675445557009228 5.17860017509026 -8.948604394972573 -6.630846911079259 -23.24439589471889 -4.887987427142053 7.153414617727415 -1.2985497740558707 1.2425241664798177 16.12313115784995 -2.147776151366883 11.184094228680149 5.603135225600534 -8.00146988744701 -10.259414520005066 -11.107616111126253 -0.0000016299013333599936 -1.7777670506972911 0.0000030924495723899097 -28.505124893560865 -4.551000984172661 17.711621451029465 -7.493745816442115 37.99942120184889 -2.107541300666665 -2.0218153611620533 -3.44674268846742 -9.555259304966386 0.000017193161712465456 -26.32070768621626 -0.0000025827908959004652
-0.30727723240852356 -0.42169933255127034 0.023328561335802078 4.943380287516099 -3.971298680212463 -9.357219815379825 4.105991855738124 2.2551130293772874 4.2925473543769685 0.1559814784063269 1.8706280688255907 -7.074062189211525 -3.4045045340503512 6.351865837050764 5.567311548312341 -28.530520135656257 8.873167140835207 28.134502461351303 0 0 0 0 0 0 0 0 0 19.636331764417516 0.25974860828485075 7.994410078797905 -0.22012205416777134 -8.349891194865203 59.45047499903611 149.6697421576243 1.3788979271260433 -0.3736836793776282 0.6883449157014943 -21.54379839488316 30.796021954497537 -17.564520119348778 7.935348227515703 74.4769737400196 -5.32035982515463 6.043619285734542 109.13530847784818 -0.03323638276377213 -0.8197555218773396 22.123049274035438 -11.355145199895471 4.97033836015361 57.41208545142613 -4.774319727401666 5.44144009620539 88.91902823702955 0.24967181960472704 -0.1871753705508193 17.812876359639088 -10.090320462381488 2.781281603872768 46.66400463553718 -5.438388735779483 3.0022364795526024 67.82945169209579 -1.5230898113431308 0.18753295687800758 15.913363046500322 -4.982352212212634 0.40834709019310744 12.404697326638022 -5.790541463150723 4.512661086226332 83.79911574227323 -0.0494417813608725 -0.2147138890764805 13.845813098137798 -12.029653680011746 -9.997549210166081 -7.60868229305438 -9.32880075631999 5.49960324273236 -6.6230435632221445 -11.262956246426713 -6.808635437238193 11.001981834995537 -14.080603528956214 4.227283333056029 9.058950830242942 -47.02022626712623 48.62102007909552 -93.91792861991063 -93.56897996499998 0.7861336019136427 0.7388109451578774 -9.684065917579657 29.15433113994645 39.62040503841402 15.76258828838298 0.22527398633893103 -16.02037686684836 4.110565652168595 2.0230448917478485 -56.65967414599207 2.570095390833138 0.5091261192945367 -20.49585661285868 5.718067287588489 0.29291356494393256 0.3466585624705201 3.474698990534523 1.604393994157521 -41.253571892374886 1.5855400863933689 0.5013290485002287 -19.296004677325357 -4.541967820526959 0.3000972859196749 -0.7364086587781676 3.5672945488698864 0.7838378025578073 -33.13187208913266 1.3341855602677564 0.15415483414734293 -12.281455039425744 -11.853475002176685 2.2323852251368144 5.836032627099851 2.418098394387238 0.28646252889749313 -18.690705013999075 0.6836141233327478 0.02363439786704511 -10.237241923608444 -40.68020265600987 24.355094760532605 1.2553451054610407 5.18582615076062 -8.945753965856992 -6.630529607701668 -23.244380591941148 -4.887984428027065 7.153401862712631 -1.2646153651387555 1.2707265039894529 16.13455054113245 -2.1947513127737155 11.124174931839258 5.601141700906624 -7.995824635914265 -10.243528319208624 -11.112449041262966 0.000010379837626628677 -1.8218106293914356 -0.000003267962157275737 -28.508124509040492 -4.547428211647731 17.71003617690012 -7.474585289209386 38.013160581198406 -2.0876691063833137 -2.0336928850243203 -3.4305800417540997 -9.524784659985537 0.000024616800799485818 -26.369008903817107 -0.00001757540333019941
-0.30850183963775635 -0.4210651391308602 0.029531575739383698 4.96232256014236 -3.963706231658916 -9.365656649750331 4.099908107225855 2.2567373119451335 4.319794511516977 0.15290435765090182 1.869170114288799 -7.061251122245688 -3.4025255566674844 6.363071799699615 5.549392904032194 -28.511117156598267 8.918264631770258 28.116534895272167 0 0 0 0 0 0 0 0 0 19.626175099530702 0.2587222017736138 8.00383266590504 -0.13623807036543736 -8.251532286447839 59.14954271402546 149.68376777793125 1.379002651447749 -0.3735311020224868 0.7684246520291758 -21.640437842826312 30.49754360234089 -17.560015662594985 7.920001829089838 74.29463625526584 -5.325689633857008 6.01790388499373 108.8368002265101 -0.033236619576755215 -0.8197534939573734 22.123052142276222 -11.358699755987605 4.9615953426717025 57.267033986915244 -4.776158863152182 5.421601100966943 88.69015783882489 0.24967181960472704 -0.1871753705508193 17.812876359639088 -10.086353111498083 2.7720741574831735 46.51933997664261 -5.432684476600179 2.9893899065878307 67.66815113926995 -1.5230898113431308 0.18753295687800758 15.913363046500322 -4.980529111070809 0.40793830900812567 12.38347756554544 -5.787601174905475 4.486711762561377 83.50273954740275 -0.0494417813608725 -0.2147138890764805 13.845813098137798 -11.982840211424483 -9.862629528479275 -7.637757240859602 -9.422987339806742 5.4774842931160865 -6.570604862252157 -11.25831486609813 -6.813902830803089 10.959402765341121 -14.05001222551174 4.229469822392018 9.086781386325166 -46.992517286695794 48.555193028679014 -93.93435263114395 -93.50795519000526 0.7853266565803009 0.7388518479790731 -9.780622119814733 29.173697837308556 39.551629891005135 15.76077081921811 0.2371315047418975 -16.091204871135872 4.110566504277078 2.023059628528612 -56.659861812046735 2.5700836627907115 0.5091412743750918 -20.495816640223534 5.717120552344205 0.2936035298093932 0.2749254548388358 3.47156749325217 1.6009331495151127 -41.20014123275247 1.585544780530105 0.5013137333492088 -19.2959647060128 -4.541971618705955 0.28770414480830603 -0.80698205157478 3.5672717525431046 0.7838476752394623 -33.13191947784259 1.334159207057312 0.15413967961027672 -12.281428559414618 -11.850666092470915 2.2112221959629665 5.767920591454815 2.41744261489594 0.2862313134343925 -18.682949730674125 0.6836197258241116 0.023642762181447598 -10.237271936919996 -40.691738132830935 24.28403367181649 1.223154084207737 5.19950788728032 -8.94036604165184 -6.6299417212875635 -23.244359212447982 -4.8879762875721635 7.153415042837519 -1.1991424726056839 1.3247078105842005 16.151778511934 -2.2807648949505057 11.014847134746203 5.600044703116623 -7.981327131040436 -10.214474507531566 -11.123873559814117 -0.0000010020443313395383 -1.9194889387158756 -0.0000022990342801097024 -28.510969990471075 -4.540160245787655 17.698854842289578 -7.432146684968496 38.044246221964386 -2.0448774979895377 -2.0435410526534232 -3.397300222427782 -9.462682160974714 0.000015875563249107175 -26.468512200539124 -0.000007224237277065203
-0.30979469418525696 -0.4206550591748055 0.035355087369680405 4.967786377335538 -3.955236645072512 -9.367644815641338 4.09532864709953 2.248139571702194 4.351776195504192 0.1517922582774205 1.8628879179874314 -7.046151256802047 -3.3949444328304375 6.374056792515377 5.525821683782463 -28.4691503944151 8.943535348334983 28.088312846970123 0 0 0 0 0 0 0 0 0 19.62166142152912 0.2632142450077987 7.990173033558053 -0.02027394375725555 -8.214811237130347 58.826623598348974 149.65843097445097 1.378847753395564 -0.3738376934400147 0.8677010705710985 -21.768173364317345 30.205815579796667 -17.554994389785882 7.903239798425752 74.09527146414248 -5.331343084019353 5.98976239883827 108.51038356545148 -0.033224085165620657 -0.8197561089068036 22.123064502485764 -11.362542217665757 4.951996325019539 57.1084498735973 -4.778124461341723 5.399919387726032 88.43992102099755 0.24967181960472704 -0.1871753705508193 17.812876359639088 -10.081987720820162 2.762028256371343 46.36114618594562 -5.426365929459597 2.975358128327028 67.49174796414012 -1.5230898113431308 0.18753295687800758 15.913363046500322 -4.978519528311002 0.407494282109098 12.360285337220994 -5.784214356603894 4.458369388972578 83.17864396313855 -0.0494417813608725 -0.2147138890764805 13.845813098137798 -11.931587455011554 -9.715084580625973 -7.669380279531918 -9.526092648245761 5.453268333618646 -6.513337071258823 -11.253358634256601 -6.819851288992662 10.912895806278742 -14.022665708822432 4.230975284669985 9.106664965294572 -46.935664624265755 48.49684124638236 -93.9339545793088 -93.44884821964901 0.7845741445756189 0.7388978734810977 -9.898149661273871 29.191307808910288 39.433268867124546 15.758370643659346 0.25353507483614224 -16.189212922234418 4.11058464350728 2.0230510854672836 -56.66010063922333 2.5701002952871796 0.5091210498133731 -20.495783065664863 5.716038738472062 0.29452572421502055 0.1756911818534643 3.468394018981778 1.5974510648386429 -41.14628620804443 1.5855341120374915 0.5013335309834609 -19.29591989964111 -4.5417680224381485 0.27052985717643946 -0.9046210551480213 3.5672821919826125 0.7838721167973894 -33.13200094803298 1.3341699830665092 0.15412755331257924 -12.281357246162454 -11.846310974565766 2.1819559552176373 5.673716475932972 2.4165366111668094 0.28591495967480957 -18.67189027468315 0.6836158307586887 0.02363563850698038 -10.237344099800579 -40.706959938729746 24.184884794249065 1.1795603249933895 5.212011669292402 -8.935422427708554 -6.629383266260737 -23.244334461634736 -4.8879917115920595 7.153406115525171 -1.142313882369985 1.369139369906827 16.156476511059324 -2.3626251196482686 10.93340968304568 5.605826532124898 -7.962777434676545 -10.202241798665092 -11.134320877500643 0.000003303767877776493 -1.9989848188687684 -0.0000025943132418243447 -28.509472820699433 -4.530096469289618 17.686307680556993 -7.403180196053883 38.06455656390514 -2.015007971637875 -2.0340273565601414 -3.3698100956340657 -9.426895403664682 0.00002461365543154233 -26.548061139724965 -0.000013365582326006646
